<mxfile host="app.diagrams.net" modified="2021-02-16T14:28:19.087Z" agent="5.0 (Macintosh; Intel Mac OS X 11_0_0) AppleWebKit/537.36 (KHTML, like Gecko) Chrome/86.0.4240.198 Safari/537.36 OPR/72.0.3815.487" etag="goEsnVVYbHIvkth2ApoK" version="14.3.1" type="github">
  <diagram id="b7fcpSH_Jzv22nS5X4zK" name="Страница 1">
    <mxGraphModel dx="1162" dy="868" grid="1" gridSize="10" guides="1" tooltips="1" connect="1" arrows="1" fold="1" page="1" pageScale="1" pageWidth="1169" pageHeight="1654" math="0" shadow="0">
      <root>
        <mxCell id="0" />
        <mxCell id="1" parent="0" />
        <mxCell id="kxTsbUrcp93sIlFHJX_q-1" value="" style="rounded=0;whiteSpace=wrap;html=1;" parent="1" vertex="1">
          <mxGeometry x="80" y="120" width="1040" height="1280" as="geometry" />
        </mxCell>
        <mxCell id="kxTsbUrcp93sIlFHJX_q-2" value="&amp;nbsp;6х8&amp;nbsp;" style="rounded=0;whiteSpace=wrap;html=1;rotation=130;fillColor=#f8cecc;strokeColor=#b85450;fontSize=25;fontColor=#FFFFFF;labelPosition=right;verticalLabelPosition=bottom;align=left;verticalAlign=top;" parent="1" vertex="1">
          <mxGeometry x="490" y="880" width="320" height="240" as="geometry" />
        </mxCell>
        <mxCell id="kxTsbUrcp93sIlFHJX_q-3" value="" style="endArrow=none;html=1;entryX=1;entryY=0;entryDx=0;entryDy=0;" parent="1" target="kxTsbUrcp93sIlFHJX_q-1" edge="1">
          <mxGeometry width="50" height="50" relative="1" as="geometry">
            <mxPoint x="70" y="1410" as="sourcePoint" />
            <mxPoint x="530" y="820" as="targetPoint" />
          </mxGeometry>
        </mxCell>
        <mxCell id="kxTsbUrcp93sIlFHJX_q-14" value="" style="endArrow=classic;startArrow=classic;html=1;" parent="1" edge="1">
          <mxGeometry width="50" height="50" relative="1" as="geometry">
            <mxPoint x="850" y="960" as="sourcePoint" />
            <mxPoint x="1120" y="960" as="targetPoint" />
          </mxGeometry>
        </mxCell>
        <mxCell id="kxTsbUrcp93sIlFHJX_q-17" value="&amp;nbsp;7 м&amp;nbsp;" style="edgeLabel;html=1;align=center;verticalAlign=middle;resizable=0;points=[];fontStyle=1;fontSize=30;" parent="kxTsbUrcp93sIlFHJX_q-14" vertex="1" connectable="0">
          <mxGeometry x="-0.08" y="-1" relative="1" as="geometry">
            <mxPoint as="offset" />
          </mxGeometry>
        </mxCell>
        <mxCell id="kxTsbUrcp93sIlFHJX_q-15" value="" style="endArrow=classic;startArrow=classic;html=1;" parent="1" edge="1">
          <mxGeometry width="50" height="50" relative="1" as="geometry">
            <mxPoint x="640" y="1200" as="sourcePoint" />
            <mxPoint x="640" y="1400" as="targetPoint" />
          </mxGeometry>
        </mxCell>
        <mxCell id="kxTsbUrcp93sIlFHJX_q-16" value="&lt;font style=&quot;font-size: 30px&quot;&gt;&amp;nbsp;5 м&amp;nbsp;&lt;/font&gt;" style="edgeLabel;html=1;align=center;verticalAlign=middle;resizable=0;points=[];fontStyle=1" parent="kxTsbUrcp93sIlFHJX_q-15" vertex="1" connectable="0">
          <mxGeometry x="-0.336" y="-1" relative="1" as="geometry">
            <mxPoint y="23.33" as="offset" />
          </mxGeometry>
        </mxCell>
        <mxCell id="kxTsbUrcp93sIlFHJX_q-18" value="" style="endArrow=classic;startArrow=classic;html=1;fontSize=30;shadow=0;exitX=0;exitY=0.5;exitDx=0;exitDy=0;strokeWidth=4;entryX=1;entryY=0.5;entryDx=0;entryDy=0;verticalAlign=top;labelPosition=right;verticalLabelPosition=bottom;align=left;" parent="1" source="kxTsbUrcp93sIlFHJX_q-2" target="kxTsbUrcp93sIlFHJX_q-2" edge="1">
          <mxGeometry width="50" height="50" relative="1" as="geometry">
            <mxPoint x="370" y="1530" as="sourcePoint" />
            <mxPoint x="540" y="1120" as="targetPoint" />
          </mxGeometry>
        </mxCell>
        <mxCell id="kxTsbUrcp93sIlFHJX_q-20" value="&amp;nbsp;В&amp;nbsp;" style="edgeLabel;html=1;align=center;verticalAlign=middle;resizable=0;points=[];fontSize=30;" parent="kxTsbUrcp93sIlFHJX_q-18" vertex="1" connectable="0">
          <mxGeometry x="0.7414" relative="1" as="geometry">
            <mxPoint as="offset" />
          </mxGeometry>
        </mxCell>
        <mxCell id="kxTsbUrcp93sIlFHJX_q-21" value="&amp;nbsp;З&amp;nbsp;" style="edgeLabel;html=1;align=center;verticalAlign=middle;resizable=0;points=[];fontSize=30;" parent="kxTsbUrcp93sIlFHJX_q-18" vertex="1" connectable="0">
          <mxGeometry x="-0.6577" y="-3" relative="1" as="geometry">
            <mxPoint as="offset" />
          </mxGeometry>
        </mxCell>
        <mxCell id="kxTsbUrcp93sIlFHJX_q-19" value="" style="endArrow=classic;startArrow=classic;html=1;fontSize=30;shadow=0;exitX=0.5;exitY=0;exitDx=0;exitDy=0;strokeWidth=4;entryX=0.5;entryY=1;entryDx=0;entryDy=0;" parent="1" source="kxTsbUrcp93sIlFHJX_q-2" target="kxTsbUrcp93sIlFHJX_q-2" edge="1">
          <mxGeometry width="50" height="50" relative="1" as="geometry">
            <mxPoint x="762.8460175498462" y="887.4328891009636" as="sourcePoint" />
            <mxPoint x="559.9999999999995" y="1130" as="targetPoint" />
          </mxGeometry>
        </mxCell>
        <mxCell id="kxTsbUrcp93sIlFHJX_q-22" value="&amp;nbsp;С&amp;nbsp;" style="edgeLabel;html=1;align=center;verticalAlign=middle;resizable=0;points=[];fontSize=30;" parent="kxTsbUrcp93sIlFHJX_q-19" vertex="1" connectable="0">
          <mxGeometry x="-0.5258" y="5" relative="1" as="geometry">
            <mxPoint as="offset" />
          </mxGeometry>
        </mxCell>
        <mxCell id="kxTsbUrcp93sIlFHJX_q-23" value="&amp;nbsp;Ю&amp;nbsp;" style="edgeLabel;html=1;align=center;verticalAlign=middle;resizable=0;points=[];fontSize=30;" parent="kxTsbUrcp93sIlFHJX_q-19" vertex="1" connectable="0">
          <mxGeometry x="0.6568" y="4" relative="1" as="geometry">
            <mxPoint as="offset" />
          </mxGeometry>
        </mxCell>
        <mxCell id="kxTsbUrcp93sIlFHJX_q-24" value="&amp;nbsp;6х2&amp;nbsp;" style="rounded=0;whiteSpace=wrap;html=1;rotation=-50;fillColor=#e3c800;strokeColor=#B09500;fontColor=#ffffff;fontSize=25;textDirection=rtl;" parent="1" vertex="1">
          <mxGeometry x="740" y="725" width="80" height="240" as="geometry" />
        </mxCell>
        <mxCell id="tW-J1l9bGcLtyF4_sjoV-1" value="" style="endArrow=classic;startArrow=classic;html=1;" edge="1" parent="1">
          <mxGeometry width="50" height="50" relative="1" as="geometry">
            <mxPoint x="640" y="1440" as="sourcePoint" />
            <mxPoint x="1120" y="1440" as="targetPoint" />
          </mxGeometry>
        </mxCell>
        <mxCell id="tW-J1l9bGcLtyF4_sjoV-2" value="&amp;nbsp;12 м&amp;nbsp;" style="edgeLabel;html=1;align=center;verticalAlign=middle;resizable=0;points=[];fontStyle=1;fontSize=30;" vertex="1" connectable="0" parent="tW-J1l9bGcLtyF4_sjoV-1">
          <mxGeometry x="-0.08" y="-1" relative="1" as="geometry">
            <mxPoint as="offset" />
          </mxGeometry>
        </mxCell>
      </root>
    </mxGraphModel>
  </diagram>
</mxfile>
